<svg width="64" height="64" viewBox="0 0 64 64" fill="none" xmlns="http://www.w3.org/2000/svg">
<path d="M1.2572 43.8671V55.7867C1.2572 58.6047 3.13495 60.4837 5.45278 60.4837H58.5533C60.8711 60.4837 62.7501 58.6034 62.7489 55.7855L62.7364 12.1922C62.7919 10.519 60.5325 8.3392 58.5397 8.49794H54.6192V11.107C54.6192 12.5772 53.4278 13.7686 51.9576 13.7686C50.4887 13.7686 49.2973 12.5772 49.2973 11.107V8.49794H41.4964V11.107C41.4964 12.5772 40.305 13.7686 38.8348 13.7686C37.3659 13.7686 36.1732 12.5772 36.1732 11.107V8.49794H28.3735V11.107C28.3735 12.5772 27.1821 13.7686 25.712 13.7686C24.2418 13.7686 23.0504 12.5772 23.0504 11.107V8.49794H15.2502V11.107C15.2502 12.5772 14.0588 13.7686 12.5887 13.7686C11.1185 13.7686 9.92709 12.5772 9.92709 11.107V8.49794H5.45278C3.13495 8.49794 1.2572 10.3769 1.2572 12.1934V32.8666V43.8671Z" fill="white"/>
<path d="M62.7351 12.1921V20.3094H1.2572V12.1934C1.2572 10.3736 3.13495 8.4979 5.45278 8.4979H9.92709V11.107C9.92709 12.5771 11.1185 13.7685 12.5887 13.7685C14.0588 13.7685 15.2502 12.5771 15.2502 11.107V8.4979H23.0499V11.107C23.0499 12.5771 24.2413 13.7685 25.7115 13.7685C27.1816 13.7685 28.373 12.5771 28.373 11.107V8.4979H36.1727V11.107C36.1727 12.5771 37.3654 13.7685 38.8343 13.7685C40.3045 13.7685 41.4959 12.5771 41.4959 11.107V8.4979H49.2968V11.107C49.2968 12.5771 50.4882 13.7685 51.9571 13.7685C53.4273 13.7685 54.6187 12.5771 54.6187 11.107V8.4979H58.5392C60.5367 8.34254 62.7811 10.5075 62.7351 12.1921Z" fill="#93DFAF"/>
<path d="M12.5893 13.7683H12.5883C11.1188 13.7683 9.92761 12.577 9.92761 11.1076V6.1768C9.92761 4.70728 11.1189 3.51611 12.5883 3.51611H12.5893C14.0588 3.51611 15.25 4.7074 15.25 6.1768V11.1075C15.25 12.577 14.0587 13.7683 12.5893 13.7683Z" fill="white"/>
<path d="M25.7122 13.7683H25.7112C24.2417 13.7683 23.0505 12.577 23.0505 11.1076V6.1768C23.0505 4.70728 24.2418 3.51611 25.7112 3.51611H25.7122C27.1817 3.51611 28.3729 4.7074 28.3729 6.1768V11.1075C28.373 12.577 27.1817 13.7683 25.7122 13.7683Z" fill="white"/>
<path d="M38.8353 13.7683C37.3654 13.7689 36.1735 12.5774 36.1735 11.1076V6.1768C36.1735 4.70728 37.3648 3.51611 38.8342 3.51611H38.8352C40.3047 3.51611 41.4958 4.7074 41.4958 6.1768V11.1075C41.496 12.577 40.3047 13.7683 38.8353 13.7683Z" fill="white"/>
<path d="M51.9582 13.7683C50.4883 13.7689 49.2964 12.5774 49.2964 11.1076V6.1768C49.2964 4.70728 50.4877 3.51611 51.9571 3.51611H51.9581C53.4276 3.51611 54.6188 4.7074 54.6188 6.1768V11.1075C54.619 12.577 53.4277 13.7683 51.9582 13.7683Z" fill="white"/>
<path d="M61.3636 8.03633C60.5151 7.52462 59.5313 7.24551 58.5395 7.24789H55.8689V6.17671C55.8689 4.02036 54.1145 2.26611 51.9572 2.26611C49.8008 2.26611 48.0464 4.02036 48.0464 6.17671V7.24789H42.7458V6.17671C42.7458 4.02036 40.9916 2.26611 38.8341 2.26611C36.6777 2.26611 34.9235 4.02036 34.9235 6.17671V7.24789H29.6229V6.17671C29.6229 4.02036 27.8685 2.26611 25.7111 2.26611C23.5548 2.26611 21.8004 4.02036 21.8004 6.17671V7.24789H16.4998V6.17671C16.4998 4.02036 14.7454 2.26611 12.5881 2.26611C10.4317 2.26611 8.67734 4.02036 8.67734 6.17671V7.24789H5.45257C2.56915 7.26476 0.0337003 9.48786 0.00720215 12.1933V32.8665C0.00720215 33.5568 0.566788 34.1164 1.25711 34.1164C1.94744 34.1164 2.50703 33.5568 2.50703 32.8665V21.5593H61.489L61.4989 55.786C61.5257 57.6137 60.3895 59.2324 58.5532 59.2336H5.45269C3.71844 59.2336 2.50715 57.8162 2.50715 55.7866V43.8671C2.50715 43.1767 1.94757 42.6171 1.25724 42.6171C0.566913 42.6171 0.00732714 43.1767 0.00732714 43.8671V55.7866C0.00732714 59.1769 2.34829 61.7334 5.45269 61.7334H58.5532C61.7409 61.7652 64.0616 58.9586 63.9987 55.7851L63.9861 12.204C64.0002 10.7148 62.8965 8.96164 61.3636 8.03633ZM51.9582 4.76594C52.7361 4.76594 53.3691 5.39877 53.3691 6.17671V11.1069C53.3784 11.8727 52.7216 12.5289 51.9572 12.5183C51.1915 12.5188 50.5463 11.8904 50.5469 11.1069L50.5463 6.17671C50.5463 5.39877 51.1792 4.76594 51.9582 4.76594ZM37.4233 6.17671C37.4233 5.39877 38.0561 4.76594 38.8352 4.76594C39.6132 4.76594 40.246 5.39877 40.246 6.17671V11.1075C40.2534 11.8714 39.6064 12.5263 38.8341 12.5183C38.0561 12.5183 37.4233 11.8854 37.4233 11.1075V6.17671ZM24.3002 6.17671C24.3002 5.39877 24.9331 4.76594 25.7121 4.76594C26.4901 4.76594 27.123 5.39877 27.123 6.17671V11.1075C27.123 11.8854 26.4902 12.5183 25.7121 12.5183H25.7111C24.9332 12.5183 24.3002 11.8854 24.3002 11.1075V6.17671ZM11.1773 6.17671C11.1773 5.39877 11.8101 4.76594 12.5892 4.76594C13.3671 4.76594 14.0001 5.39877 14.0001 6.17671V11.1075C14.0001 11.8854 13.3673 12.5183 12.5892 12.5183H12.5882C11.8102 12.5183 11.1773 11.8854 11.1773 11.1075V6.17671ZM61.4851 19.0594H2.50703V12.1933C2.5184 10.8569 4.15891 9.72059 5.45257 9.74784H8.67697V11.107C8.67697 13.2638 10.4317 15.0185 12.5884 15.0185C14.7453 15.0185 16.4999 13.2637 16.4999 11.107V9.74771H21.7998V11.1069C21.7998 13.2637 23.5545 15.0183 25.7113 15.0183C27.8681 15.0183 29.6227 13.2636 29.6227 11.1069V9.74771H34.9226V11.1069C34.9226 13.2637 36.6774 15.0183 38.8341 15.0183C40.9646 15.0405 42.7684 13.225 42.7456 11.1069V9.74771H48.0461V11.1074C48.0436 13.2805 49.8302 15.025 51.9569 15.0183C54.0791 15.0272 55.8733 13.2796 55.8684 11.1069V9.74771H58.5417C59.8887 9.70209 61.349 10.9048 61.4846 12.192V19.0594H61.4851Z" fill="#33AB5F"/>
<path d="M29.6108 45.2833C29.3892 44.7446 28.87 44.3967 28.2875 44.3967C28.2871 44.3967 28.2865 44.3967 28.2861 44.3967C27.7032 44.3972 27.1838 44.7463 26.9631 45.2858C26.9592 45.2952 26.9555 45.3047 26.9518 45.3143L23.9528 53.1886C23.7071 53.8337 24.0309 54.5558 24.676 54.8015C25.3043 55.0459 26.0438 54.7298 26.2889 54.0783L26.7292 52.9223H29.8223L30.2572 54.0748C30.501 54.7206 31.2219 55.0464 31.868 54.8029C32.5138 54.5591 32.8398 53.8379 32.5961 53.1921L29.6243 45.3175C29.6199 45.3059 29.6155 45.2945 29.6108 45.2833ZM27.6813 50.4223L28.2829 48.8429L28.879 50.4223H27.6813Z" fill="#33AB5F"/>
<path d="M46.4746 48.5302C45.538 48.1848 44.6629 47.8094 44.3495 47.6727C44.2627 47.5886 44.2552 47.4827 44.2664 47.4036C44.2948 47.2066 44.4619 47.0481 44.7253 46.9687C45.7281 46.6664 46.674 47.4166 46.6836 47.4243C47.2238 47.9109 48.0848 47.8363 48.5154 47.2443C48.9331 46.7041 48.833 45.9275 48.2921 45.5107C47.5677 44.9017 45.8494 44.0194 44.0042 44.5751C42.8068 44.9359 41.9591 45.8835 41.792 47.0483C41.6242 48.2026 42.1756 49.3583 43.2092 49.9021C43.2557 49.9229 44.363 50.4157 45.6094 50.8756C46.0769 51.0481 46.5554 51.3507 46.496 51.6828C46.4456 51.9654 46.0459 52.3835 45.3485 52.3835C44.6245 52.3835 43.9302 52.0944 43.4913 51.61C43.0279 51.0986 42.2374 51.0597 41.7258 51.5233C41.2144 51.9867 41.1755 52.7773 41.6391 53.2888C42.5574 54.3021 43.9094 54.8833 45.3485 54.8833C47.1536 54.8833 48.6712 53.722 48.957 52.1221C49.1738 50.9083 48.6355 49.3272 46.4746 48.5302Z" fill="#33AB5F"/>
<path d="M36.5883 54.883H36.5914C37.2802 54.883 37.8396 54.3255 37.8413 53.6361L37.8503 49.9258L40.179 46.3485C40.5556 45.7701 40.3919 44.9957 39.8134 44.6191C39.235 44.2426 38.4606 44.4062 38.084 44.9847L36.5998 47.2648L35.0968 44.963C34.7193 44.3849 33.9447 44.2223 33.3669 44.5998C32.7888 44.9772 32.6263 45.7517 33.0036 46.3297L35.3505 49.9239L35.3415 53.63C35.3397 54.3205 35.8979 54.8814 36.5883 54.883Z" fill="#33AB5F"/>
<path d="M15.0123 53.5038C14.982 54.2195 15.5407 54.9027 16.2831 54.8831C16.3513 54.8829 17.9618 54.8766 18.6064 54.8654C21.1438 54.821 22.9856 52.6275 22.9856 49.6499C22.9856 46.5198 21.1905 44.4167 18.5185 44.4167H16.2623C15.5877 44.4034 14.9947 45.0004 15.0124 45.6749L15.0123 53.5038ZM18.5184 46.9167C20.3438 46.9167 20.4856 49.0088 20.4856 49.65C20.4856 50.9851 19.8911 52.3428 18.5627 52.366C18.3185 52.3703 17.9203 52.3739 17.524 52.3767C17.5211 51.4579 17.516 47.8744 17.5142 46.9167H18.5184Z" fill="#33AB5F"/>
<path d="M37.6903 24.7783C34.8771 24.7783 32.5884 27.067 32.5884 29.8802V35.2903C32.5884 38.1035 34.8771 40.3922 37.6903 40.3922C40.5034 40.3922 42.7922 38.1035 42.7922 35.2903V29.8802C42.7922 27.067 40.5034 24.7783 37.6903 24.7783ZM40.2923 35.2903C40.2923 36.7251 39.125 37.8924 37.6903 37.8924C36.2555 37.8924 35.0882 36.7251 35.0882 35.2903V29.8802C35.0882 28.4454 36.2555 27.2781 37.6903 27.2781C39.125 27.2781 40.2923 28.4454 40.2923 29.8802V35.2903Z" fill="#33AB5F"/>
<path d="M25.7597 37.9303C24.7485 37.9303 23.8809 37.1771 23.7415 36.1779C23.7285 36.0842 23.7217 35.988 23.7217 35.8922C23.7217 35.2018 23.1622 34.6423 22.4718 34.6423C21.7815 34.6423 21.2219 35.2018 21.2219 35.8922C21.2219 36.1033 21.2367 36.3158 21.2657 36.5235C21.5764 38.7506 23.5085 40.43 25.7599 40.43C28.2621 40.43 30.2978 38.3942 30.2978 35.8922C30.2978 34.5991 29.7532 33.4316 28.8825 32.6041C29.7532 31.7768 30.2978 30.6093 30.2978 29.3161C30.2978 26.8139 28.2621 24.7783 25.7599 24.7783C23.5963 24.7783 21.7236 26.3175 21.3072 28.4379C21.1742 29.1153 21.6154 29.7722 22.2927 29.9053C22.9701 30.0381 23.627 29.5971 23.7601 28.9198C23.947 27.9686 24.7879 27.2781 25.7599 27.2781C26.8837 27.2781 27.798 28.1923 27.798 29.3161C27.798 30.4399 26.8838 31.3542 25.7599 31.3542C25.0695 31.3542 24.5099 31.9138 24.5099 32.6041C24.5099 33.2945 25.0695 33.8541 25.7599 33.8541C26.8837 33.8541 27.798 34.7682 27.798 35.8922C27.7978 37.0161 26.8835 37.9303 25.7597 37.9303Z" fill="#33AB5F"/>
<path d="M0.0994744 38.8805C0.403453 39.6878 1.54575 39.9135 2.13683 39.2867C2.84016 38.6054 2.46193 37.3523 1.49688 37.1781C0.540943 36.969 -0.293498 37.9835 0.0994744 38.8805Z" fill="#33AB5F"/>
</svg>
