<svg width="62" height="61" viewBox="0 0 62 61" fill="none" xmlns="http://www.w3.org/2000/svg">
<path fill-rule="evenodd" clip-rule="evenodd" d="M1 3.02742V45.9992C1 47.1139 1.9126 48.0266 3.0273 48.0266H6.1457V7.99142C6.1457 6.87672 7.0583 5.96412 8.173 5.96412H24.7349H38.175V3.02742C38.175 1.91272 37.2624 1.00012 36.1477 1.00012H19.5858H3.0273C1.9127 1.00002 1 1.91272 1 3.02742Z" fill="white"/>
<path fill-rule="evenodd" clip-rule="evenodd" d="M6.14575 7.99141V48.0265V50.9665C6.14575 52.0812 7.05835 52.9905 8.17305 52.9905H41.2934C42.4081 52.9905 43.3208 52.0812 43.3208 50.9665C43.3208 41.1497 43.3208 24.5503 43.3208 7.99141C43.3208 6.87671 42.4081 5.96411 41.2934 5.96411H38.1751H24.735H8.17305C7.05845 5.96401 6.14575 6.87671 6.14575 7.99141Z" fill="white"/>
<path fill-rule="evenodd" clip-rule="evenodd" d="M11.2982 16.3803V25.5674C11.2982 26.4767 12.0424 27.2209 12.9517 27.2209H21.2596C22.1689 27.2209 22.9131 26.4766 22.9131 25.5674V16.3803C22.9131 15.471 22.1689 14.7268 21.2596 14.7268H12.9517C12.0424 14.7268 11.2982 15.471 11.2982 16.3803Z" fill="#93DFAF"/>
<path fill-rule="evenodd" clip-rule="evenodd" d="M36.1477 1H22.0476C22.94 2.4919 23.7449 4.1555 24.4521 5.964H24.735H38.1751V3.0274C38.175 1.9127 37.2624 1 36.1477 1Z" fill="white"/>
<path fill-rule="evenodd" clip-rule="evenodd" d="M38.175 5.96399H24.7349H24.452C29.7257 19.4752 29.0892 43.1029 18.0704 52.9905H41.2934C42.4081 52.9905 43.3207 52.0812 43.3207 50.9665V49.3365C39.6197 49.7474 35.7773 48.4676 33.0327 45.5411C29.8368 42.133 28.9646 37.3778 30.3622 33.2389C30.9852 31.3867 32.0628 29.659 33.5884 28.2278C36.3094 25.6751 39.8858 24.6075 43.3208 24.9881V7.99139C43.3208 6.87669 42.4082 5.96409 41.2935 5.96409L38.175 5.96399Z" fill="white"/>
<path fill-rule="evenodd" clip-rule="evenodd" d="M52.457 49.2726L50.8001 50.5692C50.5374 50.7746 50.4903 51.1552 50.6957 51.4179L56.6092 58.9784C56.8146 59.2411 57.1952 59.2882 57.4578 59.0828L59.4481 57.5269L60.7682 56.493C61.0309 56.2876 61.078 55.907 60.8726 55.6443L59.4481 53.8224L54.9625 48.0839C54.7571 47.8212 54.3732 47.7741 54.1105 47.9795L52.457 49.2726Z" fill="#93DFAF"/>
<path fill-rule="evenodd" clip-rule="evenodd" d="M30.3622 33.2389C28.9646 37.3778 29.8369 42.133 33.0327 45.5411C35.7773 48.4676 39.6197 49.7474 43.3207 49.3365C45.7723 49.0671 48.1599 48.0568 50.1266 46.2955C50.2007 46.2315 50.2748 46.1642 50.3455 46.0968C55.279 41.4696 55.5282 33.7172 50.9012 28.7835C48.8268 26.5676 46.1192 25.2979 43.3207 24.9881C39.8857 24.6075 36.3094 25.6751 33.5883 28.2278C32.0628 29.659 30.9852 31.3866 30.3622 33.2389ZM36.1477 42.6213C33.1337 39.4052 33.2953 34.357 36.5114 31.3429C38.4074 29.5648 40.9432 28.8912 43.3207 29.2987C44.9742 29.5816 46.5502 30.3865 47.7861 31.7032C50.8001 34.9193 50.6385 39.9675 47.4258 42.9816C46.2404 44.0929 44.8092 44.7698 43.3207 45.0258C40.7681 45.4636 38.0504 44.652 36.1477 42.6213Z" fill="#93DFAF"/>
<path fill-rule="evenodd" clip-rule="evenodd" d="M36.5114 31.343C33.2953 34.3571 33.1337 39.4053 36.1477 42.6214C38.0504 44.6521 40.768 45.4637 43.3207 45.0259C44.8092 44.77 46.2404 44.0931 47.4258 42.9817C50.6385 39.9676 50.8001 34.9194 47.7861 31.7033C46.5502 30.3865 44.9742 29.5817 43.3207 29.2988C40.9432 28.8913 38.4074 29.5648 36.5114 31.343Z" fill="white"/>
<path fill-rule="evenodd" clip-rule="evenodd" d="M47.4258 42.9817C50.6385 39.9676 50.8002 34.9194 47.7862 31.7033C46.5503 30.3865 44.9743 29.5817 43.3208 29.2988C41.8694 29.0496 40.3572 29.2045 38.9664 29.7669C39.9464 30.1879 40.8524 30.8109 41.6269 31.6393C41.9704 32.003 42.2735 32.3937 42.5362 32.8045C42.8629 33.313 43.1222 33.8519 43.3209 34.4042C43.9439 36.1453 43.9405 38.0514 43.3209 39.7858C42.91 40.9409 42.2231 42.0186 41.2667 42.9144C40.5292 43.6081 39.6939 44.1335 38.8083 44.4905C40.2328 45.1034 41.8055 45.2853 43.3209 45.026C44.8092 44.7699 46.2404 44.093 47.4258 42.9817Z" fill="white"/>
<path fill-rule="evenodd" clip-rule="evenodd" d="M50.9013 28.7834C48.8269 26.5675 46.1193 25.2978 43.3208 24.988C41.8222 24.823 40.2933 24.9307 38.8217 25.3214C40.4146 25.6649 41.9468 26.3283 43.3208 27.305C43.9741 27.7697 44.5938 28.3086 45.1629 28.9148C45.6546 29.4402 46.089 29.9958 46.4729 30.5751C46.941 30.8984 47.3822 31.2722 47.7863 31.7033C50.8003 34.9194 50.6387 39.9676 47.426 42.9817C47.2138 43.1804 46.9983 43.3622 46.7727 43.5306C46.1968 44.5072 45.4728 45.4165 44.6073 46.2281C44.1965 46.612 43.7654 46.9656 43.3209 47.2822C42.1018 48.1511 40.7615 48.7674 39.3741 49.1344C40.6706 49.4139 42.0042 49.4813 43.3209 49.3365C45.7725 49.0671 48.1601 48.0568 50.1268 46.2955C50.2009 46.2315 50.275 46.1642 50.3457 46.0968C55.2792 41.4695 55.5284 33.7171 50.9013 28.7834Z" fill="#93DFAF"/>
<path fill-rule="evenodd" clip-rule="evenodd" d="M59.4481 53.8223L54.9625 48.0838C54.7571 47.8211 54.3732 47.774 54.1105 47.9794L52.457 49.2726C52.7163 49.0672 53.1002 49.1143 53.3056 49.377L59.2191 56.9375C59.4212 57.2002 59.3774 57.5807 59.1147 57.7862L59.4481 57.5269L60.7682 56.493C61.0309 56.2876 61.078 55.907 60.8726 55.6443L59.4481 53.8223Z" fill="#93DFAF"/>
<path d="M12.9513 28.221H21.26C22.7229 28.221 23.9133 27.0306 23.9133 25.5672V16.3801C23.9133 14.9172 22.7229 13.7268 21.26 13.7268H12.9513C11.4884 13.7268 10.298 14.9172 10.298 16.3801V25.5672C10.298 27.0306 11.4884 28.221 12.9513 28.221ZM12.298 16.3801C12.298 16.0261 12.5968 15.7268 12.9513 15.7268H21.26C21.6145 15.7268 21.9133 16.0261 21.9133 16.3801V25.5672C21.9133 25.9217 21.6145 26.221 21.26 26.221H12.9513C12.5968 26.221 12.298 25.9217 12.298 25.5672V16.3801Z" fill="#33AB5F"/>
<path d="M27.345 16.1848H38.4779C39.0306 16.1848 39.4779 15.737 39.4779 15.1848C39.4779 14.6326 39.0306 14.1848 38.4779 14.1848H27.345C26.7923 14.1848 26.345 14.6326 26.345 15.1848C26.345 15.737 26.7923 16.1848 27.345 16.1848Z" fill="#33AB5F"/>
<path d="M27.345 22.2029H38.4779C39.0306 22.2029 39.4779 21.7551 39.4779 21.2029C39.4779 20.6507 39.0306 20.2029 38.4779 20.2029H27.345C26.7923 20.2029 26.345 20.6507 26.345 21.2029C26.345 21.7551 26.7923 22.2029 27.345 22.2029Z" fill="#33AB5F"/>
<path d="M47.3012 35.9691C46.6762 33.1024 43.8334 31.2806 40.9662 31.9051C40.4262 32.0228 40.0844 32.5555 40.2015 33.0951C40.3197 33.6342 40.8538 33.975 41.3919 33.8593C43.1917 33.4697 44.9574 34.6078 45.348 36.3959C45.4496 36.8637 45.8636 37.183 46.3236 37.1825C46.3939 37.1825 46.4662 37.1752 46.5375 37.1596C47.0776 37.0419 47.4194 36.5087 47.3012 35.9691Z" fill="#33AB5F"/>
<path d="M48.5161 31.0193C45.1284 27.4094 39.4369 27.2278 35.8275 30.6135C32.2152 33.9978 32.0325 39.6917 35.4183 43.3055C37.182 45.1854 39.5726 46.1356 41.9682 46.1356C44.1713 46.1356 46.3794 45.3324 48.1108 43.7108C51.7192 40.3245 51.9009 34.6311 48.5161 31.0193ZM46.7426 42.2518C43.934 44.8851 39.5091 44.7425 36.8773 41.9378C34.2454 39.1287 34.388 34.7034 37.1947 32.0725C38.5385 30.8113 40.2543 30.1872 41.9662 30.1872C43.8275 30.1872 45.686 30.926 47.0571 32.3869C49.688 35.1946 49.5464 39.6204 46.7426 42.2518Z" fill="#33AB5F"/>
<path d="M61.6607 55.0284L55.7505 47.4688C55.4868 47.1309 55.1069 46.9161 54.6802 46.8638C54.2515 46.8116 53.8316 46.9278 53.4946 47.1919L52.6281 47.8698L51.4617 46.3795C53.7671 44.0086 55.0976 40.9169 55.2105 37.5854C55.3205 34.0454 54.0505 30.6853 51.6305 28.0953C49.6005 25.9453 47.0305 24.6153 44.3204 24.1352C44.3189 24.135 44.3175 24.1348 44.316 24.1346L44.3204 7.9951C44.3204 6.325 42.9604 4.965 41.2903 4.965H39.1751V3.0274C39.1751 1.358 37.8167 0 36.1477 0H3.0274C1.3584 0 0 1.3579 0 3.0274V45.999C0 47.6684 1.3584 49.0264 3.0274 49.0264H5.1501V50.9655C5.1501 52.6355 6.5001 53.9855 8.1701 53.9855H41.2904C42.9605 53.9855 44.3205 52.6355 44.3205 50.9655V50.2055C46.3649 49.8442 48.2904 48.9903 49.9672 47.7137L51.0536 49.1017L50.1842 49.7818C49.4879 50.3262 49.3629 51.336 49.9078 52.0343L55.8219 59.5954C56.1383 59.9987 56.611 60.2101 57.0885 60.2097C57.4332 60.2097 57.7819 60.0989 58.0739 59.8703L61.3835 57.2809C62.0806 56.7364 62.2056 55.7261 61.6607 55.0284ZM3.0274 47.0263C2.461 47.0263 2 46.5654 2 45.9989V3.0274C2 2.461 2.4609 2 3.0274 2H36.1478C36.7142 2 37.1752 2.4609 37.1752 3.0274V4.965H8.1701C6.5001 4.965 5.1501 6.325 5.1501 7.9951V47.0263H3.0274ZM42.3204 50.9655C42.3204 51.5355 41.8604 51.9855 41.2904 51.9855H8.1701C7.6101 51.9855 7.1501 51.5355 7.1501 50.9655V7.9951C7.1501 7.4251 7.6101 6.9651 8.1701 6.9651H41.2904C41.8604 6.9651 42.3204 7.4251 42.3204 7.9951L42.3253 23.9355C42.3237 23.9355 42.322 23.9352 42.3204 23.9352C39.6 23.8545 36.867 24.6229 34.5178 26.221H27.345C26.7923 26.221 26.345 26.6688 26.345 27.221C26.345 27.7733 26.7923 28.221 27.345 28.221H32.2025C31.0999 29.4264 30.2616 30.7893 29.6844 32.2391H11.298C10.7453 32.2391 10.298 32.6869 10.298 33.2391C10.298 33.7913 10.7453 34.2391 11.298 34.2391H29.0523C28.7565 35.5576 28.6713 36.9132 28.7813 38.2572H11.298C10.7453 38.2572 10.298 38.705 10.298 39.2572C10.298 39.8095 10.7453 40.2572 11.298 40.2572H29.1003C29.4347 41.6603 29.9987 43.0184 30.7981 44.2748H11.298C10.7453 44.2748 10.298 44.7226 10.298 45.2748C10.298 45.827 10.7453 46.2748 11.298 46.2748H32.3515C34.7667 48.8227 38.0243 50.2862 41.5404 50.4054C41.8008 50.4054 42.0601 50.4291 42.3204 50.4054V50.9655ZM49.6604 45.3654C48.1504 46.7954 46.3104 47.7454 44.3204 48.1654C43.4354 48.356 42.5153 48.4431 41.6104 48.4054C38.6004 48.3054 35.8204 47.0454 33.7604 44.8554C29.5203 40.3354 29.7503 33.2053 34.2703 28.9553C36.3703 26.9853 39.0903 25.9153 41.9604 25.9153H42.3304C43.0104 25.9353 43.6704 26.0153 44.3204 26.1653C46.5504 26.6353 48.5804 27.7653 50.1704 29.4653C54.4105 33.9953 54.1805 41.1254 49.6604 45.3654ZM57.1529 58.0509L51.7271 51.1138L54.4166 49.0098L59.8415 55.9483L57.1529 58.0509Z" fill="#33AB5F"/>
</svg>
