<svg width="14" height="14" viewBox="0 0 14 14" fill="none" xmlns="http://www.w3.org/2000/svg">
<g clip-path="url(#clip0_2001_1836)">
<path d="M7 0.956055C7.02236 0.95608 7.04189 0.961558 7.05566 0.969727C7.06709 0.976554 7.0803 0.988417 7.09277 1.01367L8.67188 4.21289C8.8764 4.62739 9.27216 4.9151 9.72949 4.98145L13.2598 5.49414C13.2879 5.49824 13.3034 5.50777 13.3135 5.5166C13.3254 5.52713 13.3368 5.54338 13.3438 5.56445C13.3507 5.58581 13.3512 5.60645 13.3477 5.62207C13.3447 5.63505 13.3376 5.65119 13.3174 5.6709L10.7627 8.16211C10.4323 8.48438 10.2811 8.94881 10.3594 9.4043L10.9619 12.9209C10.9667 12.9488 10.9623 12.9663 10.957 12.9785C10.9507 12.9932 10.939 13.0093 10.9209 13.0225C10.9027 13.0357 10.8832 13.0424 10.8672 13.0439C10.8539 13.0451 10.8364 13.0433 10.8115 13.0303L7.65332 11.3701C7.29567 11.1823 6.87683 11.159 6.50391 11.2998L6.34668 11.3701L3.18848 13.0303C3.16366 13.0433 3.14605 13.0451 3.13281 13.0439C3.11684 13.0425 3.09731 13.0357 3.0791 13.0225C3.06101 13.0093 3.04932 12.9932 3.04297 12.9785C3.03767 12.9662 3.03329 12.9488 3.03809 12.9209L3.64062 9.4043C3.7091 9.00567 3.60185 8.60014 3.35254 8.28906L3.2373 8.16211L0.682617 5.6709C0.662439 5.6512 0.655309 5.6351 0.652344 5.62207C0.648815 5.60637 0.649318 5.58579 0.65625 5.56445C0.663192 5.54328 0.674589 5.52709 0.686523 5.5166C0.696451 5.50787 0.711365 5.49824 0.739258 5.49414H0.740234L4.27051 4.98145C4.72784 4.9151 5.1236 4.62739 5.32812 4.21289L6.90723 1.01367C6.91969 0.988399 6.93297 0.976504 6.94434 0.969727C6.95806 0.961585 6.97758 0.956055 7 0.956055Z" stroke="#33AB5F" stroke-width="1.3"/>
<mask id="mask0_2001_1836" style="mask-type:alpha" maskUnits="userSpaceOnUse" x="0" y="0" width="9" height="14">
<rect width="9" height="14" fill="#D9D9D9"/>
</mask>
<g mask="url(#mask0_2001_1836)">
<path d="M7.67606 0.725971L9.25507 3.92547C9.36488 4.148 9.57719 4.30219 9.82278 4.33782L13.3537 4.85092C13.9723 4.94086 14.219 5.70073 13.7716 6.13673L11.2167 8.62718C11.0391 8.80036 10.9579 9.05004 11 9.29447L11.603 12.8111C11.7087 13.427 11.0622 13.8966 10.5091 13.606L7.35103 11.9458C7.13142 11.8305 6.86888 11.8305 6.64928 11.9458L3.49124 13.606C2.93814 13.8969 2.29158 13.427 2.39729 12.8111L3.00034 9.29447C3.04239 9.05004 2.96121 8.80036 2.78365 8.62718L0.228666 6.13673C-0.218727 5.70044 0.0280402 4.94057 0.646563 4.85092L4.17752 4.33782C4.42312 4.30219 4.63543 4.148 4.74523 3.92547L6.32424 0.725971C6.60051 0.165562 7.39951 0.165562 7.67606 0.725971Z" fill="#33AB5F"/>
</g>
</g>
<defs>
<clipPath id="clip0_2001_1836">
<rect width="14" height="14" fill="white"/>
</clipPath>
</defs>
</svg>
