<svg width="16" height="16" viewBox="0 0 16 16" fill="none" xmlns="http://www.w3.org/2000/svg">
<g clip-path="url(#clip0_2001_1832)">
<path d="M8.67606 1.72597L10.2551 4.92547C10.3649 5.148 10.5772 5.30219 10.8228 5.33782L14.3537 5.85092C14.9723 5.94086 15.219 6.70073 14.7716 7.13673L12.2167 9.62718C12.0391 9.80036 11.9579 10.05 12 10.2945L12.603 13.8111C12.7087 14.427 12.0622 14.8966 11.5091 14.606L8.35103 12.9458C8.13142 12.8305 7.86888 12.8305 7.64928 12.9458L4.49124 14.606C3.93814 14.8969 3.29158 14.427 3.39729 13.8111L4.00034 10.2945C4.04239 10.05 3.96121 9.80036 3.78365 9.62718L1.22867 7.13673C0.781273 6.70044 1.02804 5.94057 1.64656 5.85092L5.17752 5.33782C5.42312 5.30219 5.63543 5.148 5.74523 4.92547L7.32424 1.72597C7.60051 1.16556 8.39951 1.16556 8.67606 1.72597Z" fill="#33AB5F"/>
</g>
<defs>
<clipPath id="clip0_2001_1832">
<rect width="14" height="14" fill="white" transform="translate(1 1)"/>
</clipPath>
</defs>
</svg>
