<svg width="64" height="64" viewBox="0 0 64 64" fill="none" xmlns="http://www.w3.org/2000/svg">
<g clip-path="url(#clip0_2001_2126)">
<path d="M53.8774 10.1226C45.0287 1.27372 31.7209 -1.37354 20.1594 3.41528C8.5979 8.2041 1.05957 19.4859 1.05957 32C1.05957 44.514 8.5979 55.7958 20.1594 60.5847C31.7209 65.3735 45.0287 62.7262 53.8774 53.8773C65.952 41.7915 65.952 22.2084 53.8774 10.1226ZM50.1014 50.1013C40.8354 59.3695 26.0661 60.143 15.8827 51.8933L26.176 41.6H18.624L12.1067 48.1173C3.83869 37.9356 4.60335 23.152 13.8777 13.8776C23.1521 4.60329 37.9356 3.83862 48.1174 12.1066L38.8907 21.3333H46.4427L51.8934 15.8826C60.1356 26.0685 59.3624 40.8321 50.1014 50.1013Z" fill="#93DFAF"/>
<path d="M11.7333 24.5333V38.3999C11.7333 40.1673 13.166 41.5999 14.9333 41.5999H18.624L12.1067 48.1173C3.83866 37.9356 4.60333 23.152 13.8777 13.8776C23.152 4.60327 37.9356 3.8386 48.1173 12.1066L38.8907 21.3333H14.9333C13.166 21.3333 11.7333 22.766 11.7333 24.5333Z" fill="white"/>
<path d="M50.1014 50.1012C40.8354 59.3695 26.0661 60.1429 15.8827 51.8932L26.176 41.5999H49.0667C50.834 41.5999 52.2667 40.1672 52.2667 38.3999V24.5332C52.2667 22.7659 50.834 21.3332 49.0667 21.3332H46.4427L51.8934 15.8826C60.1355 26.0684 59.3624 40.832 50.1014 50.1012Z" fill="white"/>
<path d="M49.0667 21.3333H14.9333C13.166 21.3333 11.7333 22.7659 11.7333 24.5333V38.3999C11.7333 40.1672 13.166 41.5999 14.9333 41.5999H49.0667C50.834 41.5999 52.2667 40.1672 52.2667 38.3999V24.5333C52.2667 22.7659 50.834 21.3333 49.0667 21.3333Z" fill="white"/>
<path d="M4.08215 47.5955L5.94455 46.5544L6.99095 48.3272C7.37815 48.8936 7.80055 49.4366 8.20162 49.9934L8.81069 50.8232L9.49975 51.5891L10.88 53.1198L9.37282 54.627L7.89335 52.9918L7.15735 52.1704L6.50669 51.2819C6.08002 50.6856 5.62562 50.1086 5.21175 49.4952L4.08215 47.5955Z" fill="white"/>
<path d="M7.35998 51.7183C6.77087 51.7212 6.29092 51.2461 6.28798 50.657C6.28503 50.0679 6.76021 49.5879 7.34931 49.585H7.35998C7.94908 49.585 8.42664 50.0625 8.42664 50.6516C8.42664 51.2407 7.94908 51.7183 7.35998 51.7183Z" fill="#33AB5F"/>
<path d="M32 -0.000122192C23.5084 -0.0236268 15.3605 3.35148 9.37281 9.37268C1.9418 16.8689 -1.3513 27.5266 0.555741 37.9081C1.21789 41.3017 2.40779 44.5705 4.08214 47.5956C4.26811 47.9283 4.61744 48.1365 4.99854 48.1418C5.37963 48.1471 5.73461 47.9487 5.92974 47.6213C6.12487 47.2939 6.13051 46.8872 5.94454 46.5545C4.38295 43.7319 3.27229 40.6825 2.65281 37.5167C2.07318 34.3408 2.00476 31.0928 2.45014 27.8953C3.33908 21.459 6.29795 15.4866 10.88 10.8799C18.4255 3.33443 29.4232 0.387595 39.7305 3.14942C50.0377 5.91125 58.0886 13.9621 60.8505 24.2694C63.6123 34.5767 60.6655 45.5744 53.12 53.1199C47.5188 58.7216 39.9217 61.8687 32 61.8687C24.0783 61.8687 16.4812 58.7216 10.88 53.1199C10.6122 52.8426 10.2156 52.7314 9.84267 52.829C9.46973 52.9266 9.17848 53.2179 9.08086 53.5908C8.98325 53.9637 9.09445 54.3603 9.37174 54.6281C17.4559 62.7123 29.2387 65.8695 40.2818 62.9105C51.3249 59.9515 59.9505 51.3258 62.9095 40.2827C65.8685 29.2396 62.7113 17.4568 54.6272 9.37268C48.6395 3.35148 40.4916 -0.0236268 32 -0.000122192Z" fill="#33AB5F"/>
<path d="M48.8288 12.9065C49.071 12.69 49.2014 12.3749 49.1829 12.0505C49.1644 11.7262 48.9991 11.4279 48.7339 11.2404C38.1211 2.69171 22.7703 3.52032 13.1394 13.1617C3.50845 22.803 2.69644 38.1547 11.2566 48.7582C11.4509 49.0175 11.7526 49.1743 12.0765 49.1845C12.4004 49.1947 12.7114 49.0571 12.9216 48.8105L19.0656 42.6665H23.6011L15.1744 51.0932C14.9322 51.3097 14.8019 51.6248 14.8203 51.9491C14.8388 52.2735 15.0041 52.5717 15.2694 52.7593C25.8828 61.3007 41.2278 60.4687 50.8555 50.8298C60.4832 41.1909 61.2973 25.8449 52.7435 15.2414C52.5491 14.9822 52.2474 14.8253 51.9235 14.8151C51.5996 14.805 51.2887 14.9426 51.0784 15.1892L46.0011 20.2665H41.4656L48.8288 12.9065ZM49.0667 22.3998C50.2449 22.3998 51.2 23.3549 51.2 24.5332V38.3998C51.2 39.578 50.2449 40.5332 49.0667 40.5332H14.9334C13.7551 40.5332 12.8 39.578 12.8 38.3998V24.5332C12.8 23.3549 13.7551 22.3998 14.9334 22.3998H49.0667ZM12.2101 46.5065C5.03598 36.7415 6.06547 23.2014 14.6335 14.6334C23.2016 6.06528 36.7417 5.03579 46.5067 12.21L38.4491 20.2665H14.9334C12.5769 20.2665 10.6667 22.1767 10.6667 24.5332V38.3998C10.6667 40.7562 12.5769 42.6665 14.9334 42.6665H16.0491L12.2101 46.5065ZM51.7899 17.4932C58.9641 27.2582 57.9346 40.7982 49.3665 49.3663C40.7984 57.9344 27.2584 58.9639 17.4934 51.7897L26.6176 42.6665H49.0667C51.4231 42.6665 53.3334 40.7562 53.3334 38.3998V24.5332C53.3334 22.1767 51.4231 20.2665 49.0667 20.2665H49.0176L51.7899 17.4932Z" fill="#33AB5F"/>
<path d="M25.5337 25.5999H17.0003C16.4112 25.5999 15.9337 26.0774 15.9337 26.6665C15.9337 27.2556 16.4112 27.7332 17.0003 27.7332H20.2003V36.2665C20.2003 36.8556 20.6779 37.3332 21.267 37.3332C21.8561 37.3332 22.3337 36.8556 22.3337 36.2665V27.7332H25.5337C26.1228 27.7332 26.6003 27.2556 26.6003 26.6665C26.6003 26.0774 26.1228 25.5999 25.5337 25.5999Z" fill="#33AB5F"/>
<path d="M38.9418 37.1539C39.1771 37.3109 39.4652 37.368 39.7427 37.3126C40.0202 37.2572 40.2643 37.0938 40.4212 36.8584L42.7338 33.3864L45.0463 36.8552C45.2578 37.1723 45.6224 37.3524 46.0027 37.3278C46.3831 37.3032 46.7214 37.0775 46.8902 36.7358C47.059 36.3941 47.0327 35.9883 46.8212 35.6712L44.0138 31.4664L46.8191 27.2584C47.0306 26.9414 47.0569 26.5355 46.8881 26.1938C46.7192 25.8522 46.3809 25.6265 46.0006 25.6018C45.6203 25.5772 45.2557 25.7574 45.0442 26.0744L42.7338 29.5464L40.4212 26.0776C40.0943 25.5875 39.4319 25.4552 38.9418 25.7821C38.4516 26.1091 38.3194 26.7715 38.6463 27.2616L41.4538 31.4664L38.6484 35.6744C38.321 36.164 38.4523 36.8263 38.9418 37.1539Z" fill="#33AB5F"/>
<path d="M35.8336 32.6666L35.8197 32.6357L32.9749 26.2357C32.8038 25.8503 32.4217 25.6018 32 25.6018C31.5783 25.6018 31.1961 25.8503 31.0251 26.2357L28.1803 32.6357L28.1664 32.6666L26.7584 35.8336C26.5192 36.372 26.7618 37.0024 27.3002 37.2416C27.8387 37.4808 28.4691 37.2382 28.7082 36.6997L29.8485 34.1333H34.1514L35.2917 36.6997C35.5309 37.2382 36.1613 37.4808 36.6997 37.2416C37.2382 37.0024 37.4808 36.372 37.2416 35.8336L35.8336 32.6666ZM30.7968 32L32 29.2928L33.2032 32H30.7968Z" fill="#33AB5F"/>
</g>
<defs>
<clipPath id="clip0_2001_2126">
<rect width="64" height="64" fill="white"/>
</clipPath>
</defs>
</svg>
