<svg width="64" height="64" viewBox="0 0 64 64" fill="none" xmlns="http://www.w3.org/2000/svg">
<g clip-path="url(#clip0_2001_2115)">
<path d="M34.9927 6.7583L34.4775 3.09668C34.3032 1.8584 33.2437 0.9375 31.9932 0.9375C30.7427 0.9375 29.6831 1.8584 29.5088 3.09668L28.9937 6.75781L31.9932 6L34.9927 6.7583Z" fill="#93DFAF"/>
<path fill-rule="evenodd" clip-rule="evenodd" d="M31.9933 5.45386C22.977 5.45406 15.6674 19.3602 15.6671 36.5144C15.0212 36.503 14.4554 36.0847 14.2501 35.4705C13.6862 33.782 11.6969 32.5398 8.29896 32.5398C4.56858 32.5398 2.53675 34.0364 2.22377 35.9773C2.17379 36.2891 1.90136 36.5164 1.58607 36.5164C1.22188 36.5163 0.930313 36.2165 0.937635 35.8523C1.29115 19.0037 15.0598 5.45393 31.9933 5.45386ZM31.9933 5.45386C48.9264 5.45386 62.6954 19.0037 63.049 35.8523C63.0563 36.2166 62.7648 36.5164 62.4005 36.5164C62.0853 36.5163 61.8143 36.289 61.7638 35.9773C61.4508 34.0364 59.4181 32.5398 55.6876 32.5398C52.2898 32.5398 50.3004 33.782 49.7365 35.4705C49.531 36.0851 48.9649 36.5035 48.3185 36.5144C48.3177 19.3601 41.0097 5.45386 31.9933 5.45386ZM17.2228 35.3015C17.1798 35.3851 17.1416 35.4696 17.1076 35.5544C17.0929 35.5908 17.0768 35.6262 17.0597 35.6609C17.0768 35.6262 17.093 35.5907 17.1076 35.5544C17.1417 35.4696 17.1797 35.3851 17.2228 35.3015ZM46.879 35.5544H46.88H46.879ZM42.9826 32.4783H42.9835H42.9826Z" fill="#93DFAF"/>
<path d="M19.4932 52.7915V55.5625C19.4932 59.7046 22.8511 63.0625 26.9932 63.0625C31.1353 63.0625 34.4932 59.7046 34.4932 55.5625V50.2915H29.4932V55.5625C29.4932 56.9434 28.374 58.0625 26.9932 58.0625C25.6123 58.0625 24.4932 56.9434 24.4932 55.5625V52.7915C24.4932 51.4106 23.374 50.2915 21.9932 50.2915C20.6123 50.2915 19.4932 51.4111 19.4932 52.7915Z" fill="white"/>
<path d="M54.3945 13.6655C49.2568 8.62793 42.7051 5.5249 35.6533 4.7251L35.4057 2.96582C35.1679 1.2749 33.7007 0 31.9931 0C30.2856 0 28.8183 1.2749 28.5805 2.96582L28.333 4.7251C21.2812 5.5249 14.7295 8.62793 9.59178 13.666C3.58299 19.5571 0.17674 27.4297 0.000470968 35.833C-0.00880637 36.2637 0.152326 36.6704 0.453596 36.978C0.754377 37.2852 1.15623 37.4546 1.58592 37.4546C2.36766 37.4546 3.02488 36.896 3.14891 36.1265C3.41209 34.4927 5.38572 33.4775 8.29881 33.4775C10.9897 33.4775 12.8823 34.3335 13.3608 35.7671C13.6938 36.7646 14.6142 37.4375 15.6582 37.4531C15.6611 37.4531 15.664 37.4536 15.667 37.4536H15.6684C15.6767 37.4536 15.6855 37.4546 15.6943 37.4546C16.7026 37.4546 17.5991 36.8462 17.9775 35.9048C18.6904 34.1309 22.4702 32.3394 28.5561 31.8413V55.5625C28.5561 56.4243 27.855 57.125 26.9936 57.125C26.1318 57.125 25.4311 56.4243 25.4311 55.5625V52.7915C25.4311 50.8965 23.8891 49.354 21.9936 49.354C20.0981 49.354 18.5561 50.8965 18.5561 52.7915V55.5625C18.5561 60.2148 22.3408 64 26.9936 64C31.646 64 35.4311 60.2148 35.4311 55.5625V44.3589C35.4311 43.8408 35.0112 43.4214 34.4936 43.4214C33.9756 43.4214 33.5561 43.8408 33.5561 44.3589V49.354H30.4311V31.7319C30.9389 31.7139 31.459 31.7041 31.9936 31.7041C32.5278 31.7041 33.0483 31.7139 33.5561 31.7319V40.8589C33.5561 41.377 33.9756 41.7964 34.4936 41.7964C35.0112 41.7964 35.4311 41.377 35.4311 40.8589V31.8408C41.5171 32.3394 45.2969 34.1309 46.0097 35.9043C46.3882 36.8457 47.2842 37.4541 48.2929 37.4541C48.3012 37.4541 48.31 37.4531 48.3188 37.4531H48.3198C48.3227 37.4531 48.3257 37.4526 48.3291 37.4526C49.373 37.4375 50.2934 36.7642 50.6259 35.7671C51.1045 34.333 52.997 33.4771 55.688 33.4771C58.6015 33.4771 60.5747 34.4922 60.8379 36.1265C60.9619 36.8955 61.6191 37.4541 62.4009 37.4541C62.8305 37.4541 63.2324 37.2847 63.5332 36.978C63.8344 36.6704 63.9956 36.2637 63.9863 35.8325C63.8095 27.4297 60.4033 19.5571 54.3945 13.6655ZM33.5556 51.229V55.5625C33.5556 59.1812 30.6118 62.125 26.9931 62.125C23.3745 62.125 20.4306 59.1812 20.4306 55.5625V52.7915C20.4306 51.9302 21.1313 51.229 21.9931 51.229C22.8545 51.229 23.5556 51.9302 23.5556 52.7915V55.5625C23.5556 57.458 25.0976 59 26.9931 59C28.8887 59 30.4306 57.458 30.4306 55.5625V51.229H33.5556ZM30.437 3.22705C30.5459 2.45605 31.2148 1.875 31.9931 1.875C32.7715 1.875 33.4404 2.45605 33.5488 3.22705L33.7373 4.56494C33.1582 4.53369 32.5771 4.5166 31.9931 4.5166C31.4092 4.5166 30.8276 4.53418 30.249 4.56494L30.437 3.22705ZM8.29881 31.6021C4.90574 31.6021 2.91649 32.7598 1.95848 34.1777C2.9785 21.0913 12.5317 10.2637 24.9526 7.23682C22.9746 8.85498 21.1675 11.1694 19.6191 14.1157C16.7363 19.6006 15.0381 26.7217 14.7685 34.3574C13.7314 32.5952 11.4336 31.6021 8.29881 31.6021ZM55.6875 31.6021C52.5532 31.6021 50.2544 32.5947 49.2177 34.3579C48.9497 26.7915 47.2778 19.7202 44.4399 14.2549C44.2011 13.7949 43.6352 13.6162 43.1758 13.855C42.7163 14.0933 42.5371 14.6597 42.7759 15.1187C45.4912 20.3481 47.0903 27.1484 47.3452 34.4492C45.4404 31.6172 39.5957 29.8291 31.9931 29.8291C24.3906 29.8291 18.5459 31.6177 16.6416 34.4492C16.8979 27.0815 18.521 20.2349 21.2788 14.9878C24.1924 9.44434 27.9975 6.3916 31.9931 6.3916C35.2959 6.3916 38.4619 8.46436 41.1484 12.3862C41.4409 12.8135 42.0244 12.9224 42.4516 12.6299C42.8789 12.3369 42.9878 11.7534 42.6953 11.3262C41.5591 9.66748 40.3325 8.30029 39.0371 7.2373C51.4565 10.2651 61.0078 21.0923 62.0278 34.1777C61.0698 32.7598 59.0805 31.6021 55.6875 31.6021Z" fill="#33AB5F"/>
</g>
<defs>
<clipPath id="clip0_2001_2115">
<rect width="64" height="64" fill="white"/>
</clipPath>
</defs>
</svg>
