<?xml version="1.0" encoding="UTF-8"?>
<svg version="1.1" xmlns="http://www.w3.org/2000/svg" width="1220" height="1220">
<path d="M0 0 C402.6 0 805.2 0 1220 0 C1220 402.6 1220 805.2 1220 1220 C817.4 1220 414.8 1220 0 1220 C0 817.4 0 414.8 0 0 Z " fill="#060605" transform="translate(0,0)"/>
<path d="M0 0 C328.60979463 0 328.60979463 0 385 55 C385.64066406 55.57878906 386.28132813 56.15757812 386.94140625 56.75390625 C413.53658788 81.37450363 424.4700011 122.07069349 426.09112549 156.96124268 C427.70833433 199.52561776 420.11236271 237.68027951 390.8125 270.0625 C384.4699256 276.86746674 377.54457821 282.58353715 370 288 C369.40461426 288.43296387 368.80922852 288.86592773 368.19580078 289.31201172 C356.86716088 297.47435613 344.58723749 304.4616569 331 308 C331.94493352 310.46557758 331.94493352 310.46557758 335.734375 311.33984375 C337.4060362 311.87306657 339.07792933 312.40556258 340.75 312.9375 C361.80149329 319.99464285 380.23888633 331.20326691 396.28125 346.45703125 C398.98351069 349.0497462 398.98351069 349.0497462 402 351.40234375 C405.30596163 354.26492772 407.85887289 357.28747198 410.5 360.75 C410.98065918 361.37414795 411.46131836 361.9982959 411.95654297 362.64135742 C426.33174308 381.44400234 435.40927599 401.77982179 440 425 C440.15243164 425.75539063 440.30486328 426.51078125 440.46191406 427.2890625 C445.09211137 451.21008184 444.08298133 476.92554288 441 501 C440.76023437 502.87751953 440.76023437 502.87751953 440.515625 504.79296875 C437.37935749 523.54700084 430.34992104 542.47781048 421 559 C420.49984375 559.91136719 419.9996875 560.82273437 419.484375 561.76171875 C413.35025201 572.49643398 405.47801621 582.04698458 397 591 C396.23042969 591.82242188 395.46085937 592.64484375 394.66796875 593.4921875 C388.3245541 600.07130253 381.43012565 605.71052021 374 611 C373.39365723 611.43425293 372.78731445 611.86850586 372.16259766 612.31591797 C272.33576162 682.78949296 90.89263229 652 0 652 C0 436.84 0 221.68 0 0 Z " fill="#FEFEFE" transform="translate(393,286)"/>
<path d="M0 0 C37.7128125 -0.061875 37.7128125 -0.061875 76.1875 -0.125 C88.03885864 -0.15231201 88.03885864 -0.15231201 100.12963867 -0.18017578 C109.87365723 -0.18920898 109.87365723 -0.18920898 114.45381165 -0.19088745 C117.61208481 -0.19272998 120.77028884 -0.20014045 123.92854309 -0.21115112 C141.37757206 -0.26928537 158.66288448 -0.27557086 176 2 C177.13435439 2.14334605 177.13435439 2.14334605 178.29162502 2.28958797 C206.05917911 5.80973153 233.64866777 18.33355991 251.28222656 40.62060547 C262.18600563 55.17413318 268.63303898 71.22599 272 89 C272.33644531 90.52173828 272.33644531 90.52173828 272.6796875 92.07421875 C278.55064375 122.19302855 273.30506115 156.49411156 258 183 C257.12794922 184.546875 257.12794922 184.546875 256.23828125 186.125 C243.03402985 207.66425607 221.709657 220.58885405 198 228 C193.46455811 229.06577491 188.9025223 229.89400532 184.3125 230.6875 C183.14138672 230.89955078 181.97027344 231.11160156 180.76367188 231.33007812 C177.51182235 231.91148608 174.26272068 232.48295412 171 233 C169.94109055 233.17315735 168.88218109 233.3463147 167.79118347 233.52471924 C160.94265857 234.36250126 154.01703698 234.13045503 147.12890625 234.11352539 C145.49592593 234.11321873 143.86294547 234.11335311 142.22996521 234.11389065 C137.87328979 234.11411558 133.51664206 234.1083371 129.15997314 234.10128021 C125.06563229 234.09556784 120.97129803 234.09531614 116.87695312 234.09460449 C104.91796511 234.08936578 92.9589822 234.07540455 81 234.0625 C54.27 234.041875 27.54 234.02125 0 234 C0 156.78 0 79.56 0 0 Z " fill="#070705" transform="translate(477,633)"/>
<path d="M0 0 C23.8425 -0.061875 47.685 -0.12375 72.25 -0.1875 C79.72172852 -0.21481201 87.19345703 -0.24212402 94.89160156 -0.27026367 C104.15966797 -0.28381348 104.15966797 -0.28381348 108.52630615 -0.28633118 C111.51514654 -0.28907707 114.50381989 -0.30011659 117.49261475 -0.31672668 C168.96900614 -0.5898684 168.96900614 -0.5898684 191 7 C191.98830811 7.3388623 191.98830811 7.3388623 192.99658203 7.68457031 C209.66660367 13.47239563 224.95255166 20.67817908 236 35 C236.52078125 35.65871094 237.0415625 36.31742187 237.578125 36.99609375 C239.0995558 38.96703819 240.55822845 40.9702434 242 43 C242.63035156 43.85078125 242.63035156 43.85078125 243.2734375 44.71875 C258.60363049 66.98170542 260.18930595 99.75206029 255.8659668 125.40820312 C251.15833443 149.06107109 239.75721272 171.44315299 220 186 C204.91527413 196.01288644 186.28834991 202.64776519 168.28941345 204.62380981 C166.14702256 204.86882201 164.0090848 205.15807543 161.87965393 205.49777222 C146.77599908 207.71221332 131.51377989 207.25784494 116.28800201 207.20256042 C112.59210382 207.19102975 108.89623382 207.19062664 105.20031738 207.18920898 C94.44602868 207.17878311 83.69176267 207.15086067 72.9375 207.125 C48.868125 207.08375 24.79875 207.0425 0 207 C0 138.69 0 70.38 0 0 Z " fill="#070705" transform="translate(477,357)"/>
</svg>
